<svg width="1267" height="262" viewBox="0 0 1267 262" fill="none" xmlns="http://www.w3.org/2000/svg">
<g clip-path="url(#clip0_303_61)">
<rect width="1267" height="262" fill="#131223"/>
<path d="M128.917 79.962C124.11 79.962 120.127 78.52 116.969 75.636C113.947 72.752 112.437 69.1127 112.437 64.718C112.437 60.3233 113.947 56.7527 116.969 54.006C120.127 51.122 124.11 49.68 128.917 49.68C133.723 49.68 137.637 51.122 140.659 54.006C143.817 56.7527 145.397 60.3233 145.397 64.718C145.397 69.1127 143.817 72.752 140.659 75.636C137.637 78.52 133.723 79.962 128.917 79.962ZM115.733 198V95.824H142.101V198H115.733ZM169.622 198V95.824H192.9L195.166 109.626C198.462 104.682 202.788 100.768 208.144 97.884C213.638 94.8627 219.955 93.352 227.096 93.352C242.89 93.352 254.082 99.4633 260.674 111.686C264.382 106.055 269.326 101.592 275.506 98.296C281.824 95 288.69 93.352 296.106 93.352C309.428 93.352 319.659 97.3347 326.8 105.3C333.942 113.265 337.512 124.939 337.512 140.32V198H311.144V142.792C311.144 134.003 309.428 127.273 305.994 122.604C302.698 117.935 297.548 115.6 290.544 115.6C283.403 115.6 277.635 118.209 273.24 123.428C268.983 128.647 266.854 135.925 266.854 145.264V198H240.486V142.792C240.486 134.003 238.77 127.273 235.336 122.604C231.903 117.935 226.616 115.6 219.474 115.6C212.47 115.6 206.771 118.209 202.376 123.428C198.119 128.647 195.99 135.925 195.99 145.264V198H169.622ZM397.772 200.472C388.983 200.472 381.773 199.099 376.142 196.352C370.512 193.468 366.323 189.691 363.576 185.022C360.83 180.353 359.456 175.203 359.456 169.572C359.456 160.096 363.164 152.405 370.58 146.5C377.996 140.595 389.12 137.642 403.952 137.642H429.908V135.17C429.908 128.166 427.917 123.016 423.934 119.72C419.952 116.424 415.008 114.776 409.102 114.776C403.746 114.776 399.077 116.081 395.094 118.69C391.112 121.162 388.64 124.87 387.678 129.814H361.928C362.615 122.398 365.087 115.943 369.344 110.45C373.739 104.957 379.37 100.768 386.236 97.884C393.103 94.8627 400.794 93.352 409.308 93.352C423.866 93.352 435.333 96.9913 443.71 104.27C452.088 111.549 456.276 121.849 456.276 135.17V198H433.822L431.35 181.52C428.329 187.013 424.072 191.545 418.578 195.116C413.222 198.687 406.287 200.472 397.772 200.472ZM403.746 179.872C411.3 179.872 417.136 177.4 421.256 172.456C425.514 167.512 428.192 161.401 429.29 154.122H406.836C399.832 154.122 394.82 155.427 391.798 158.036C388.777 160.508 387.266 163.598 387.266 167.306C387.266 171.289 388.777 174.379 391.798 176.576C394.82 178.773 398.802 179.872 403.746 179.872ZM524.699 167.512C519.755 167.512 515.154 166.963 510.897 165.864L503.275 173.486C505.609 174.722 508.768 175.752 512.751 176.576C516.733 177.4 523.188 178.224 532.115 179.048C545.711 180.284 555.599 183.511 561.779 188.73C567.959 193.949 571.049 201.159 571.049 210.36C571.049 216.403 569.401 222.102 566.105 227.458C562.809 232.951 557.727 237.346 550.861 240.642C543.994 244.075 535.205 245.792 524.493 245.792C509.935 245.792 498.193 243.045 489.267 237.552C480.34 232.196 475.877 224.093 475.877 213.244C475.877 204.043 480.34 196.077 489.267 189.348C486.52 188.112 484.117 186.807 482.057 185.434C480.134 184.061 478.417 182.619 476.907 181.108V176.37L494.829 157.418C486.863 150.414 482.881 141.419 482.881 130.432C482.881 123.565 484.529 117.317 487.825 111.686C491.258 106.055 496.065 101.592 502.245 98.296C508.425 95 515.909 93.352 524.699 93.352C530.467 93.352 535.823 94.176 540.767 95.824H579.495V111.892L561.985 113.128C564.731 118.347 566.105 124.115 566.105 130.432C566.105 137.299 564.457 143.547 561.161 149.178C557.865 154.809 553.058 159.272 546.741 162.568C540.561 165.864 533.213 167.512 524.699 167.512ZM524.699 147.324C530.055 147.324 534.449 145.882 537.883 142.998C541.453 140.114 543.239 135.994 543.239 130.638C543.239 125.282 541.453 121.162 537.883 118.278C534.449 115.394 530.055 113.952 524.699 113.952C519.068 113.952 514.536 115.394 511.103 118.278C507.669 121.162 505.953 125.282 505.953 130.638C505.953 135.994 507.669 140.114 511.103 142.998C514.536 145.882 519.068 147.324 524.699 147.324ZM499.979 210.566C499.979 215.647 502.313 219.424 506.983 221.896C511.789 224.505 517.626 225.81 524.493 225.81C531.085 225.81 536.441 224.437 540.561 221.69C544.681 219.081 546.741 215.51 546.741 210.978C546.741 207.27 545.368 204.18 542.621 201.708C540.011 199.236 534.724 197.725 526.759 197.176C521.128 196.764 515.909 196.146 511.103 195.322C507.12 197.519 504.236 199.923 502.451 202.532C500.803 205.141 499.979 207.819 499.979 210.566ZM644.345 200.472C634.045 200.472 624.912 198.275 616.947 193.88C608.981 189.485 602.733 183.305 598.201 175.34C593.669 167.375 591.403 158.173 591.403 147.736C591.403 137.161 593.6 127.754 597.995 119.514C602.527 111.274 608.707 104.888 616.535 100.356C624.5 95.6867 633.839 93.352 644.551 93.352C654.576 93.352 663.434 95.5493 671.125 99.944C678.815 104.339 684.789 110.381 689.047 118.072C693.441 125.625 695.639 134.071 695.639 143.41C695.639 144.921 695.57 146.5 695.433 148.148C695.433 149.796 695.364 151.513 695.227 153.298H617.565C618.114 161.263 620.861 167.512 625.805 172.044C630.886 176.576 636.997 178.842 644.139 178.842C649.495 178.842 653.958 177.675 657.529 175.34C661.237 172.868 663.983 169.709 665.769 165.864H692.549C690.626 172.319 687.399 178.224 682.867 183.58C678.472 188.799 672.979 192.919 666.387 195.94C659.932 198.961 652.585 200.472 644.345 200.472ZM644.551 114.776C638.096 114.776 632.397 116.63 627.453 120.338C622.509 123.909 619.35 129.402 617.977 136.818H668.859C668.447 130.089 665.975 124.733 661.443 120.75C656.911 116.767 651.28 114.776 644.551 114.776Z" fill="white"/>
<path d="M718.434 198V53.8H776.32C791.289 53.8 802.688 57.302 810.516 64.306C818.481 71.1727 822.464 80.0307 822.464 90.88C822.464 99.944 819.992 107.223 815.048 112.716C810.241 118.072 804.336 121.711 797.332 123.634C805.572 125.282 812.37 129.402 817.726 135.994C823.082 142.449 825.76 150.002 825.76 158.654C825.76 170.053 821.64 179.46 813.4 186.876C805.16 194.292 793.486 198 778.38 198H718.434ZM744.802 114.364H772.406C779.822 114.364 785.521 112.647 789.504 109.214C793.486 105.781 795.478 100.905 795.478 94.588C795.478 88.5453 793.486 83.8073 789.504 80.374C785.658 76.8033 779.822 75.018 771.994 75.018H744.802V114.364ZM744.802 176.576H774.26C782.088 176.576 788.13 174.791 792.388 171.22C796.782 167.512 798.98 162.362 798.98 155.77C798.98 149.041 796.714 143.753 792.182 139.908C787.65 136.063 781.538 134.14 773.848 134.14H744.802V176.576ZM882.999 200.472C874.209 200.472 866.999 199.099 861.369 196.352C855.738 193.468 851.549 189.691 848.803 185.022C846.056 180.353 844.683 175.203 844.683 169.572C844.683 160.096 848.391 152.405 855.807 146.5C863.223 140.595 874.347 137.642 889.179 137.642H915.135V135.17C915.135 128.166 913.143 123.016 909.161 119.72C905.178 116.424 900.234 114.776 894.329 114.776C888.973 114.776 884.303 116.081 880.321 118.69C876.338 121.162 873.866 124.87 872.905 129.814H847.155C847.841 122.398 850.313 115.943 854.571 110.45C858.965 104.957 864.596 100.768 871.463 97.884C878.329 94.8627 886.02 93.352 894.535 93.352C909.092 93.352 920.559 96.9913 928.937 104.27C937.314 111.549 941.503 121.849 941.503 135.17V198H919.049L916.577 181.52C913.555 187.013 909.298 191.545 903.805 195.116C898.449 198.687 891.513 200.472 882.999 200.472ZM888.973 179.872C896.526 179.872 902.363 177.4 906.483 172.456C910.74 167.512 913.418 161.401 914.517 154.122H892.063C885.059 154.122 880.046 155.427 877.025 158.036C874.003 160.508 872.493 163.598 872.493 167.306C872.493 171.289 874.003 174.379 877.025 176.576C880.046 178.773 884.029 179.872 888.973 179.872ZM966.665 198V95.824H989.943L992.003 113.128C995.162 107.085 999.694 102.279 1005.6 98.708C1011.64 95.1373 1018.71 93.352 1026.82 93.352C1039.45 93.352 1049.27 97.3347 1056.28 105.3C1063.28 113.265 1066.78 124.939 1066.78 140.32V198H1040.41V142.792C1040.41 134.003 1038.63 127.273 1035.06 122.604C1031.49 117.935 1025.92 115.6 1018.37 115.6C1010.96 115.6 1004.84 118.209 1000.04 123.428C995.368 128.647 993.033 135.925 993.033 145.264V198H966.665ZM1092 198V49.68H1118.36V137.23L1154.62 95.824H1185.93L1144.11 142.38L1192.73 198H1159.77L1118.36 146.706V198H1092Z" fill="#FD1F4A"/>
<path d="M128.976 80.442C124.169 80.442 120.187 78.9313 117.028 75.91C114.007 72.8887 112.496 69.2493 112.496 64.992C112.496 60.5973 114.007 56.8893 117.028 53.868C120.187 50.8467 124.169 49.336 128.976 49.336C133.783 49.336 137.697 50.8467 140.718 53.868C143.877 56.8893 145.456 60.5973 145.456 64.992C145.456 69.2493 143.877 72.8887 140.718 75.91C137.697 78.9313 133.783 80.442 128.976 80.442Z" fill="#FD1F4A"/>
</g>
<defs>
<clipPath id="clip0_303_61">
<rect width="1267" height="262" fill="white"/>
</clipPath>
</defs>
</svg>
